<svg width="54" height="45" viewBox="0 0 54 45" fill="none" xmlns="http://www.w3.org/2000/svg">
<g clip-path="url(#clip0_4071_8754)">
<path d="M0.696697 29.1507H7.21286V9.6989H0.696697V29.1507ZM0 3.71206C0 5.81557 1.80322 7.46537 3.93429 7.46537C6.10634 7.46537 7.82759 5.81557 7.82759 3.71206C7.82759 1.60856 6.10634 0 3.93429 0C1.80322 0 0 1.60856 0 3.71206Z" fill="white"/>
<path d="M10.9699 15.2597H17.2603L10.9699 24.2172V28.9191H25.3151V23.4399H18.7945L25.3151 14.4108V9.6989H10.9699V15.2597Z" fill="white"/>
<path d="M46.5668 29.1507H53.0838V9.6989H46.5668V29.1507ZM45.87 3.71206C45.87 5.81557 47.6734 7.46537 49.8048 7.46537C51.9771 7.46537 53.6986 5.81557 53.6986 3.71206C53.6986 1.60856 51.9771 0 49.8048 0C47.6734 0 45.87 1.60856 45.87 3.71206Z" fill="white"/>
<path d="M28.3835 15.2597H34.6748L28.3835 24.2172V28.9191H42.7307V23.4399H36.2092L42.7307 14.4108V9.69889H28.3835V15.2597Z" fill="white"/>
<path d="M44.7787 39.4024C39.7001 43.1093 33.5696 45.096 27.2821 45.0724C20.9946 45.0488 14.8792 43.0162 9.82852 39.2713L13.8252 33.881C17.7266 36.7738 22.4505 38.3438 27.3073 38.362C32.1641 38.3803 36.8996 36.8457 40.8226 33.9823L44.7787 39.4024Z" fill="white"/>
</g>
<defs>
<clipPath id="clip0_4071_8754">
<rect width="54" height="45" fill="white"/>
</clipPath>
</defs>
</svg>
