<svg width="20" height="16" viewBox="0 0 20 16" fill="none" xmlns="http://www.w3.org/2000/svg">
<path d="M0.391266 0C7.61921 0.541092 11.6231 0.525064 18.7025 0C18.7025 0 17.9806 8.06881 18.7025 13.1639C18.8322 14.0794 19.0938 15.5 19.0938 15.5H0C0 15.5 0.261534 14.0794 0.391266 13.1639C0.445182 12.7834 0.491046 12.3863 0.529759 11.9773C1.00946 6.90869 0.391266 0 0.391266 0Z" fill="#F81A5D"/>
<path d="M9.60919 10.5924C10.721 10.5924 11.6128 10.2016 12.316 9.53057C13.0193 8.84941 13.4027 7.85609 13.4027 6.71743H11.7398C11.7398 7.36809 11.551 7.86326 11.1899 8.24959C10.8382 8.63593 10.322 8.82101 9.60919 8.82101C8.89647 8.82101 8.34364 8.63593 7.98249 8.24959C7.63087 7.86326 7.47862 7.36809 7.47862 6.71743H5.81573C5.81573 7.85609 6.16735 8.84941 6.8706 9.53057C7.57384 10.2016 8.49732 10.5924 9.60919 10.5924Z" fill="#FDFFFC"/>
</svg>
